<?xml version="1.0"?>
<svg id="a" data-name="Layer 1" xmlns="http://www.w3.org/2000/svg" viewBox="0 0 1080 1080">
  <defs>

  </defs>
  <g>
    <path fill="#FFFFFF" d="M592.65,578.37c-12.89,58.43-61.62,97.14-119.15,112.04-.32.08-.65.16-.96.25-45.96,11.74-92.63,11.57-138.44,1.54-26.63-5.83-50.76-16.78-73.1-31.65-41.27-28.67-63.99-71.06-66.84-120.21-.27-4.65,3.45-8.57,8.11-8.57l95.37-.05c4.17,0,7.67,3.15,8.08,7.3.13,1.3.27,2.64.49,4.06,2.81,16.94,10.27,33.35,24.17,44.3,16.55,13.05,36.78,19.06,57.74,21.1,26.01,2.53,53.58-.45,75.45-15.12,14.44-9.69,22.93-24.76,23.31-42.17.39-17.88-7.99-33.57-23.06-43.45-11.48-7.52-23.64-12.72-37.16-16.2l-72.16-18.57c-29.93-7.71-62.98-18.15-88.98-34.47-27.65-17.35-48.19-43.44-55.34-75.19-7.14-31.73-4.39-64.38,9.41-93.86,13.32-28.48,35.99-50.46,63.78-65.56,50.39-27.39,111.57-32.63,167.56-21.95,22.02,4.19,41.64,12.33,61.18,22.6.17.09.34.19.5.28,48.25,29.11,71.72,70.67,75.23,124.57.3,4.68-3.41,8.66-8.1,8.66l-89.9.1c-4.11,0-7.52-3.08-8.04-7.16-1.32-10.26-4.37-20.12-9.5-29.42-6.04-10.73-14.69-18.86-25.79-24.58-28.65-14.98-70.21-15.12-99.42-1.52-24.69,11.5-37.86,37.67-30.52,63.72,5.75,20.45,28.85,31.1,47.87,37.44,15.79,5.27,31.26,9.27,47.63,12.91,23.9,5.32,46.53,11.26,69.9,18.63,34.14,10.77,67.69,28.15,89.21,55.92,6.69,8.63,12.23,18.27,16.26,29.04,10.27,27.4,11.5,56.78,5.22,85.23Z"></path>
    <g>
      <path fill="#93C5FD" d="M899.42,567.28c-11.13-50.34-46.45-91.18-95.96-108.94-22.93-8.23-46.11-11.94-70.97-11.92l-149.8.14c-2.36,0-4.49,1.4-5.43,3.56h0c-.87,2-.58,4.32.78,6.02,8.13,10.18,14.47,21.32,19,33.4,10.59,28.27,12.54,59.74,5.63,91.04-12.75,57.75-60.07,102.52-126.6,119.75-1.07.28-2.15.55-3.23.82-2.66.65-4.53,3.03-4.53,5.76l.13,191.42c0,3.27,2.65,5.92,5.93,5.92l118.81.02c3.27,0,5.93-2.65,5.93-5.92l.08-128.68c0-3.27,2.65-5.92,5.92-5.92l130.81-.16c30.3-1.32,58.72-7.28,85.39-20.73,68.28-33.56,93.88-104.4,78.12-175.57ZM798.27,669.27h-162.7c-9.55-.22-15.25-7.09-15.23-16l.16-64.12c0-3.27,2.66-5.91,5.93-5.91h179.81c3.27,0,5.93,2.65,5.93,5.93l.02,66.28c0,7.47-5.63,13.33-13.91,13.83ZM806.53,562.56h-180.04c-3.31,0-6.04-2.71-5.93-6.02.23-6.87,4.06-14.8,11.69-14.8l168.67-.08c7.69,0,11.45,8.01,11.55,14.95.05,3.28-2.65,5.95-5.93,5.95Z"></path>
      <g>
        <path fill="#F1F5F9" d="M632.47,614.62c3.18-1,10.46.93,10.61-1.47.16-2.66-7.79-.33-10.14-1.73-.85-.34-.85-3.46,0-3.81,2.9-1.21,6.43.19,9.59-.65l.49-10.05,12.45-.15c4.31-.05,7.73,3.19,6.89,7.21l-10.45.53-.32,17.18-12.69-.19c-3.68-.05-6.61-2.72-6.44-6.86Z"></path>
        <path fill="#F1F5F9" d="M661.59,613.66c1.19,4.86-2.99,8.96-7.88,7.76-.62-2.58-.4-4.92-.11-7.69,2.48-.33,4.59-.27,7.99-.07Z"></path>
        <path fill="#F1F5F9" d="M641.27,605.41c-3.06.49-5.53.61-8.38-.06-.56-4.6,3.31-8.37,8.23-8.21.47,2.58.33,4.95.15,8.27Z"></path>
        <path fill="#F1F5F9" d="M661.97,611.09c-2.91.44-5.35.35-7.97.08-.25-1.56-.86-4.82.4-5.31,2.53-.98,5.04-.37,7.47-.04.47,1.8.46,3.05.1,5.27Z"></path>
      </g>
    </g>
  </g>
</svg>
