<?xml version="1.0"?>
<svg id="a" data-name="Layer 1" xmlns="http://www.w3.org/2000/svg" viewBox="0 0 1080 1080">
  <defs>
    
  </defs>
  <rect fill="#0F172A" width="1080" height="1080" rx="175" ry="175"></rect>
  <g>
    <path fill="#F1F5F9" d="M592.65,578.37c-12.89,58.43-61.62,97.14-119.15,112.04-.32.08-.65.16-.96.25-45.96,11.74-92.63,11.57-138.44,1.54-26.63-5.83-50.76-16.78-73.1-31.65-41.27-28.67-63.99-71.06-66.84-120.21-.27-4.65,3.45-8.57,8.11-8.57l95.37-.05c4.17,0,7.67,3.15,8.08,7.3.13,1.3.27,2.64.49,4.06,2.81,16.94,10.27,33.35,24.17,44.3,16.55,13.05,36.78,19.06,57.74,21.1,26.01,2.53,53.58-.45,75.45-15.12,14.44-9.69,22.93-24.76,23.31-42.17.39-17.88-7.99-33.57-23.06-43.45-11.48-7.52-23.64-12.72-37.16-16.2l-72.16-18.57c-29.93-7.71-62.98-18.15-88.98-34.47-27.65-17.35-48.19-43.44-55.34-75.19-7.14-31.73-4.39-64.38,9.41-93.86,13.32-28.48,35.99-50.46,63.78-65.56,50.39-27.39,111.57-32.63,167.56-21.95,22.02,4.19,41.64,12.33,61.18,22.6.17.09.34.19.5.28,48.25,29.11,71.72,70.67,75.23,124.57.3,4.68-3.41,8.66-8.1,8.66l-89.9.1c-4.11,0-7.52-3.08-8.04-7.16-1.32-10.26-4.37-20.12-9.5-29.42-6.04-10.73-14.69-18.86-25.79-24.58-28.65-14.98-70.21-15.12-99.42-1.52-24.69,11.5-37.86,37.67-30.52,63.72,5.75,20.45,28.85,31.1,47.87,37.44,15.79,5.27,31.26,9.27,47.63,12.91,23.9,5.32,46.53,11.26,69.9,18.63,34.14,10.77,67.69,28.15,89.21,55.92,6.69,8.63,12.23,18.27,16.26,29.04,10.27,27.4,11.5,56.78,5.22,85.23Z"></path>
    <g>
      <path fill="#3B82F6" d="M899.42,567.28c-11.13-50.34-46.45-91.18-95.96-108.94-22.93-8.23-46.11-11.94-70.97-11.92l-149.8.14c-2.36,0-4.49,1.4-5.43,3.56h0c-.87,2-.58,4.32.78,6.02,8.13,10.18,14.47,21.32,19,33.4,10.59,28.27,12.54,59.74,5.63,91.04-12.75,57.75-60.07,102.52-126.6,119.75-1.07.28-2.15.55-3.23.82-2.66.65-4.53,3.03-4.53,5.76l.13,191.42c0,3.27,2.65,5.92,5.93,5.92l118.81.02c3.27,0,5.93-2.65,5.93-5.92l.08-128.68c0-3.27,2.65-5.92,5.92-5.92l130.81-.16c30.3-1.32,58.72-7.28,85.39-20.73,68.28-33.56,93.88-104.4,78.12-175.57ZM798.27,669.27h-162.7c-9.55-.22-15.25-7.09-15.23-16l.16-64.12c0-3.27,2.66-5.91,5.93-5.91h179.81c3.27,0,5.93,2.65,5.93,5.93l.02,66.28c0,7.47-5.63,13.33-13.91,13.83ZM806.53,562.56h-180.04c-3.31,0-6.04-2.71-5.93-6.02.23-6.87,4.06-14.8,11.69-14.8l168.67-.08c7.69,0,11.45,8.01,11.55,14.95.05,3.28-2.65,5.95-5.93,5.95Z"></path>
      <g>
        <path fill="#F1F5F9" d="M632.47,614.62c3.18-1,10.46.93,10.61-1.47.16-2.66-7.79-.33-10.14-1.73-.85-.34-.85-3.46,0-3.81,2.9-1.21,6.43.19,9.59-.65l.49-10.05,12.45-.15c4.31-.05,7.73,3.19,6.89,7.21l-10.45.53-.32,17.18-12.69-.19c-3.68-.05-6.61-2.72-6.44-6.86Z"></path>
        <path fill="#F1F5F9" d="M661.59,613.66c1.19,4.86-2.99,8.96-7.88,7.76-.62-2.58-.4-4.92-.11-7.69,2.48-.33,4.59-.27,7.99-.07Z"></path>
        <path fill="#F1F5F9" d="M641.27,605.41c-3.06.49-5.53.61-8.38-.06-.56-4.6,3.31-8.37,8.23-8.21.47,2.58.33,4.95.15,8.27Z"></path>
        <path fill="#F1F5F9" d="M661.97,611.09c-2.91.44-5.35.35-7.97.08-.25-1.56-.86-4.82.4-5.31,2.53-.98,5.04-.37,7.47-.04.47,1.8.46,3.05.1,5.27Z"></path>
      </g>
    </g>
  </g>
  <g>
    <path fill="#F1F5F9" d="M883.04,411.68l16.93,10.52c-12.46,18-41.92,20.66-60.27,9.85-10.87-6.41-17.07-17.22-18.3-29.3-1.86-18.26,7.72-34.93,24.32-41.89s37.56-3.68,49.41,10.59c8,9.64,9.89,22.05,7.9,34.2l-59.5.41c2.79,9.53,11.42,13.92,20.36,14.1,7.39.15,13.92-2.19,19.16-8.48ZM882.25,389.64c-2.47-10.03-10.46-14.72-19.47-14.57-9.32.47-17.02,6.26-19.17,14.86l38.64-.3Z"></path>
    <path fill="#F1F5F9" d="M631.79,411.94c5.84,3.31,10.1,7.06,16.54,9.4-10.91,18.29-38.99,21-57.25,12.1-12.62-6.15-20.07-17.25-21.3-30.77-1.33-14.66,4.96-29.02,16.54-37.17,12.57-8.85,28.8-11.12,42.92-4.62,17.59,8.08,26.32,26.91,22.02,44.81l-59.24.37c2.78,9.21,10.91,13.6,19.53,14.06,7.57.4,14.61-1.79,20.23-8.17ZM630.52,389.84c-2.37-9.79-10.54-15.15-19.71-14.77s-16.68,6.12-18.79,14.86l38.5-.08Z"></path>
    <path fill="#F1F5F9" d="M751.82,337.44l.27,21.94,18.66.53.1,17.87-18.8.38-.04,32.81c0,4.1,3.43,6.81,7.53,6.83l11.21.06c.5,5.96.31,11.59.14,18.07-14.46,3.93-40.43.47-40.68-19.01l-.5-38.76-12.98-.39-.11-17.75,12.98-.68.55-15.08,21.68-6.81"></path>
    <path fill="#F1F5F9" d="M691.68,337.73l1.02,21.69,17.64.37c.65,6.01.37,12.07.2,18.13l-17.95.15c-.47,10.74-.38,21.13-.22,31.9.06,4.24,2.59,7.41,7.04,7.72,3.64.25,6.91.11,11.21.09.9,6,.66,11.67.37,18.08-14.64,3.46-39.32.29-39.57-18.63l-.51-38.77-13.27-.71-.14-17.75,13.16-.62.59-15.08,20.43-6.56"></path>
    <polyline fill="#F1F5F9" points="806.56 325.21 806.56 435.91 784.9 435.91 784.9 325.21"></polyline>
  </g>
  <g>
    <path fill="#3B82F6" d="M683.68,897.94l-1.51-7.94c-7.62,7.26-16.95,10.54-27.79,10.07-15.04-.66-28.56-9.01-34.74-22.42-5.17-11.22-5.39-23.82-1.17-35.21,5.58-15.06,19.47-24.56,35.97-25.47,10.75-.59,20.19,2.57,27.65,9.98,1.3-2.96.58-5.03,1.15-7.96l21.53.16-.13,78.53-20.96.26ZM682.49,858.53c0-11.76-9.91-21.3-22.14-21.3s-22.14,9.54-22.14,21.3,9.91,21.3,22.14,21.3,22.14-9.54,22.14-21.3Z"></path>
    <path fill="#3B82F6" d="M802.62,819.17l-32.83,83.85c-7.27,18.58-24.74,29.75-45.02,26.57.92-7.29-1.03-12.77,1.09-19.8,8.5,2.47,23.9-6.29,19.79-16.01l-31.64-74.76,24.32-.03,21.21,50.94,19.32-50.9c7.81-.28,14.44-.56,23.76.13Z"></path>
  </g>
</svg>