<?xml version="1.0" encoding="UTF-8"?>
<svg id="a" data-name="Layer 1" xmlns="http://www.w3.org/2000/svg" viewBox="0 0 1080 1080">
  <defs>
    <style>
      .b {
        fill: #0f172a;
      }

      .c {
        fill: #3b82f6;
      }
    </style>
  </defs>
  <g>
    <path class="b" d="M589.17,568.08c-14.53,65.86-69.45,109.48-134.3,126.28-.36.09-.73.18-1.09.28-51.8,13.23-104.4,13.04-156.04,1.73-30.01-6.57-57.21-18.91-82.39-35.67-46.52-32.31-72.13-80.09-75.34-135.49-.3-5.24,3.89-9.66,9.14-9.66l107.49-.06c4.7,0,8.64,3.55,9.11,8.23.15,1.46.3,2.97.56,4.57,3.17,19.1,11.58,37.59,27.24,49.93,18.66,14.71,41.45,21.49,65.08,23.79,29.32,2.85,60.4-.51,85.04-17.04,16.28-10.92,25.84-27.91,26.27-47.53.44-20.15-9.01-37.83-25.99-48.97-12.94-8.48-26.64-14.34-41.89-18.26l-81.33-20.93c-33.73-8.69-70.99-20.46-100.29-38.85-31.17-19.56-54.32-48.96-62.37-84.75-8.05-35.77-4.94-72.56,10.61-105.79,15.02-32.1,40.56-56.87,71.89-73.89,56.79-30.87,125.75-36.78,188.86-24.75,24.82,4.73,46.93,13.9,68.96,25.47.19.1.38.21.57.32,54.38,32.81,80.84,79.65,84.79,140.41.34,5.28-3.84,9.76-9.13,9.76l-101.32.11c-4.63,0-8.47-3.48-9.06-8.07-1.48-11.57-4.92-22.68-10.71-33.16-6.8-12.1-16.55-21.26-29.07-27.7-32.29-16.89-79.13-17.04-112.06-1.71-27.83,12.96-42.68,42.46-34.4,71.82,6.48,23.05,32.52,35.05,53.95,42.2,17.8,5.94,35.24,10.44,53.68,14.56,26.94,6,52.45,12.7,78.79,21,38.48,12.14,76.29,31.72,100.55,63.03,7.54,9.73,13.78,20.6,18.32,32.73,11.58,30.88,12.96,64,5.88,96.06Z"/>
    <g>
      <path class="c" d="M934.94,555.58c-12.55-56.73-52.36-102.77-108.15-122.79-25.84-9.28-51.97-13.46-79.99-13.44l-168.84.16c-2.66,0-5.06,1.58-6.12,4.02h0c-.98,2.25-.66,4.87.87,6.79,9.16,11.48,16.31,24.03,21.41,37.65,11.93,31.86,14.13,67.34,6.34,102.61-14.37,65.09-67.71,115.55-142.7,134.97-1.21.31-2.42.62-3.64.92-2.99.74-5.1,3.41-5.1,6.49l.14,215.75c0,3.69,2.99,6.68,6.68,6.68l133.92.02c3.69,0,6.68-2.99,6.68-6.68l.09-145.04c0-3.69,2.99-6.67,6.67-6.68l147.44-.18c34.15-1.49,66.18-8.2,96.24-23.37,76.96-37.82,105.81-117.67,88.05-197.88ZM820.94,670.54h-183.38c-10.77-.24-17.19-7.99-17.17-18.03l.18-72.27c0-3.68,3-6.66,6.68-6.66h202.66c3.69,0,6.68,2.99,6.68,6.68l.02,74.71c0,8.42-6.34,15.03-15.68,15.58ZM830.24,550.26h-202.92c-3.73.01-6.81-3.05-6.68-6.78.26-7.74,4.58-16.68,13.17-16.68l190.11-.09c8.67,0,12.91,9.03,13.01,16.85.05,3.7-2.99,6.7-6.69,6.7Z"/>
      <g>
        <path class="c" d="M634.05,608.94c3.58-1.13,11.79,1.04,11.96-1.66.18-2.99-8.79-.37-11.43-1.95-.96-.38-.95-3.9,0-4.3,3.27-1.36,7.24.22,10.81-.73l.55-11.32,14.04-.17c4.85-.06,8.71,3.6,7.77,8.12l-11.78.59-.36,19.36-14.3-.21c-4.15-.06-7.45-3.07-7.25-7.74Z"/>
        <path class="c" d="M666.88,607.86c1.34,5.48-3.37,10.1-8.88,8.75-.69-2.91-.45-5.55-.12-8.67,2.79-.37,5.17-.31,9.01-.08Z"/>
        <path class="c" d="M643.98,598.56c-3.45.55-6.23.69-9.44-.07-.63-5.19,3.73-9.43,9.27-9.25.53,2.91.37,5.58.17,9.32Z"/>
        <path class="c" d="M667.31,604.96c-3.28.5-6.03.4-8.98.09-.28-1.76-.97-5.44.45-5.98,2.86-1.1,5.68-.42,8.42-.04.53,2.03.52,3.44.11,5.93Z"/>
      </g>
    </g>
  </g>
  <g>
    <path class="b" d="M916.48,380.2l19.08,11.86c-14.04,20.29-47.25,23.29-67.94,11.1-12.25-7.22-19.24-19.41-20.62-33.03-2.09-20.59,8.7-39.37,27.41-47.21,19.36-8.11,42.33-4.14,55.69,11.93,9.02,10.86,11.15,24.86,8.9,38.55l-67.07.46c3.15,10.74,12.87,15.68,22.95,15.89,8.33.17,15.69-2.47,21.6-9.55ZM915.59,355.36c-2.79-11.31-11.79-16.59-21.95-16.42-10.51.52-19.18,7.06-21.6,16.75l43.55-.34Z"/>
    <path class="b" d="M633.29,380.49c6.58,3.73,11.38,7.95,18.64,10.6-12.3,20.61-43.95,23.67-64.52,13.64-14.22-6.93-22.62-19.44-24-34.68-1.5-16.52,5.59-32.71,18.64-41.9,14.17-9.97,32.46-12.53,48.38-5.21,19.82,9.11,29.66,30.33,24.82,50.51l-66.77.41c3.14,10.38,12.29,15.33,22.02,15.84,8.53.45,16.47-2.01,22.8-9.21ZM631.86,355.58c-2.68-11.04-11.88-17.08-22.22-16.65s-18.8,6.89-21.18,16.75l43.4-.09Z"/>
    <path class="b" d="M768.58,296.52l.3,24.73,21.04.6.11,20.14-21.2.42-.05,36.98c0,4.62,3.86,7.67,8.49,7.7l12.63.07c.56,6.72.35,13.06.16,20.37-16.3,4.43-45.57.53-45.85-21.43l-.57-43.69-14.63-.44-.13-20.01,14.63-.76.62-17,24.43-7.67"/>
    <path class="b" d="M700.8,296.85l1.15,24.44,19.88.41c.73,6.77.42,13.6.23,20.43l-20.24.17c-.53,12.11-.42,23.82-.25,35.95.07,4.78,2.91,8.36,7.93,8.7,4.1.28,7.78.12,12.64.1,1.01,6.76.74,13.15.42,20.38-16.5,3.89-44.32.33-44.61-21l-.58-43.7-14.96-.8-.16-20.01,14.84-.69.66-16.99,23.03-7.4"/>
    <polyline class="b" points="830.27 282.74 830.27 407.51 805.87 407.51 805.87 282.74"/>
  </g>
  <g>
    <path class="c" d="M691.77,928.28l-1.7-8.95c-8.59,8.19-19.11,11.88-31.32,11.35-16.95-.74-32.19-10.16-39.15-25.27-5.83-12.64-6.07-26.84-1.32-39.69,6.29-16.97,21.95-27.69,40.54-28.7,12.12-.66,22.75,2.89,31.16,11.25,1.47-3.34.66-5.67,1.29-8.97l24.26.18-.14,88.52-23.62.29ZM690.43,883.86c0-13.26-11.17-24.01-24.95-24.01s-24.95,10.75-24.95,24.01,11.17,24.01,24.95,24.01,24.95-10.75,24.95-24.01Z"/>
    <path class="c" d="M825.84,839.49l-37,94.51c-8.2,20.94-27.88,33.54-50.75,29.95,1.03-8.22-1.17-14.39,1.22-22.31,9.58,2.78,26.94-7.09,22.31-18.04l-35.66-84.26,27.41-.03,23.9,57.41,21.78-57.37c8.8-.31,16.28-.64,26.78.14Z"/>
  </g>
</svg>