<?xml version="1.0" encoding="UTF-8"?>
<svg id="a" data-name="Layer 1" xmlns="http://www.w3.org/2000/svg" viewBox="499 331 1997 338">
  <defs>
    <style>
      .b {
        fill: #010101;
      }

      .c {
        fill: #f6f6f6;
      }
    </style>
  </defs>
  <path class="b" d="M771.56,332.02c-.17.88.31,1.19,2.2,1.61h1424.84s261.35-.14,261.35-.14c17.02,0,32.38,8.17,37.08,24.93,3.75,13.37,2.5,27.1,2.49,41.29l-.15,170.11c-.02,21.46,1.49,39.81-.09,61.71-1.09,15.15-12.95,36.45-31.75,36.45H531.72c-20.7-.02-31.75-22.57-31.71-40l.58-258.1c.04-17.45,12.7-35.04,30.74-35.63,77.7-2.57,154.38,1.99,230.56-2.22h9.69ZM1676.96,423.54c.33-4.25.53-4.67-3.17-3.96-12.01,2.32-25.31,17.04-22.78,29.02,12.29,4.19,25.89-11.68,25.95-25.06ZM1791.13,510.48c19.44-.45,32.2-14.31,35.75-32.36,2.47-12.55-.28-25.45-8.33-35.06-7.51-8.98-18.62-13.76-31.6-13.68l-46.09.27-.13,123.41c6.87.75,12.92.75,19.4,0l.16-41.86,30.84-.71ZM1400.48,450.81c0-5.39-4.39-9.76-9.8-9.76s-9.8,4.37-9.8,9.76,4.39,9.76,9.8,9.76,9.8-4.37,9.8-9.76ZM1046.24,512.55c18.62-.54,28.71-17.05,28.97-34.37.29-19.35-12.91-34.38-32.68-34.39l-42.72-.02-.1,104.88c5.81.83,11.02.68,17.04-.06l.27-35.19,29.21-.84ZM1532.55,548.47l-.36-53.38c-.1-15.03-12.93-25.37-27.73-24.56-9.35.51-16.48,4.05-22.78,11.79l-.63-38.76c-5.39-.96-10.61-1.11-16.5.07l.27,105.56c6.44.26,11.23.53,16.3-.3l.63-49.43c.11-8.73,8.61-14.73,15.55-15.01,7.55-.3,16.31,2.75,17.59,11.32,2.63,17.65.08,35.05,1.21,52.99,5.79.82,11.36,1.09,16.45-.3ZM1450.89,536.6c-5.16-1.46-8.55.43-11.07-2.75-1.22-1.53-2.9-4.01-2.89-7.3l.16-41.57c4.28-1.18,10.01,1.18,13.79-1.04,2.67-1.58,2.76-10.26.09-11.73-3.79-2.02-9.4.48-13.56-1.13l-.82-18.23c-5.56-.79-10.61-.46-16.09.25l-.8,18.02c-2.88,1.42-7.52-.74-9.67,1.48-2.47,3.06-1.02,7.94-.67,11.55l10.82.88.24,46.45c.05,9.53,6.42,16.81,15.89,18.1,5.41.74,10.23.59,15.88.13.58-3.56,3.01-11.88-1.28-13.1ZM1705.32,518.59c-10.82-5.61-16.52-14.7-17.53-25.06-1.09-11.25,4.22-20.69,13.94-28.08-8.99-14.05-26.6-15.98-41.31-10.07-5.79,2.32-11.23,3.22-17.04.4-13.92-6.77-29.42-2.34-38.57,10.19-17.74,24.32-4.33,62.19,14.03,83.12,13.95,15.9,23.5-7.04,46.41,3.47,21.65,9.93,34.31-16.82,40.07-33.96ZM1858.28,554.25c13.16,1.42,24.7-3,31.59-13.89,2.52,4.79.31,8.34,1.41,12.55,5.7.68,11.61.95,17.11-.3l.55-56.62c.1-10.83-2.8-22.55-12.18-28.67-13.18-8.6-30.03-8.63-43.99-1.92-9.41,4.52-15.04,13.02-16.37,22.79,6.01.9,11.39,1.21,17.25.45,2.91-8.45,10.18-12.31,18.84-11.99,6.34.24,12.55,1.8,15.23,7.11,2.23,4.43,3.83,10.74,1.18,15.22-14.67.24-28.93.12-41.81,5.85-11.62,5.17-15.81,17.86-13.1,28.89,2.68,10.91,11.64,19.18,24.3,20.54ZM1965.51,564.57l36.11-101.41c-7.1-1.39-13.5-1.57-19.8.02l-22.75,70.81-22.46-71.1c-6.96-1.03-13.21-1.22-20.19.16l15.71,44.7c5.2,14.79,11.32,28.49,15.6,43.77,1.7,6.07-3.17,14.54-7.63,18.1-4.6,3.68-9.96,1.91-14.73,2.95-.8,4.33-.26,8.41-.37,13.54,17.57,5,34.15-3.7,40.51-21.54ZM1085.63,541.39c11.79,13.64,33.98,12.21,43.7-2.09,2.51,3.27.65,5.99,1.53,9.2,5.4,1.04,10.55,1.12,15.7-.35v-52.11c0-9.69-4.38-18.08-13.64-22.12-10.45-4.55-23.06-4.78-33.66-.24-8.6,3.68-14.52,10.97-15.29,20.32,3.83.59,10.86,1.96,14.39-.07,3.35-6.68,7.51-10.81,15.7-10.7,5.49.08,10.59.97,13.45,5.34,2.01,3.07,4.85,12.22,1.38,13.94-14.59,1.74-42.12-.59-47,17.26-1.94,7.08-1.76,15.24,3.75,21.62ZM1228.44,472.31c-6.12-1.1-11.51-1.26-17.08.25l-19.16,59.69-19.69-60.45c-6.13-.22-10.89-.82-17.22.4l26.59,73.96c1.95,5.43-1.17,10.93-4.08,14.48-3.18,3.87-8.39,3.72-14.03,3.71-1.03,4.17-.88,8.77-.17,12.61,17.12,3.33,30.17-4.54,35.53-20.02l29.31-84.62ZM1355.2,472.4l-13.72,57.25-15.9-57.68c-5.92-.53-10.68-.94-16.12.32l-15.98,58.32-13.2-58.65c-6.49-.46-11.54-.8-17.69.23l21.1,76.25c6.46,1.31,12.09,1.21,18.53.01l14.98-55.46,16.17,55.47c6.44.95,12.4,1.88,18-.56l20.89-75.62c-6.34-1.18-11.65-1.29-17.06.11ZM1382.15,471.52v77.65h17.11v-77.65h-17.11Z"/>
  <g>
    <path class="c" d="M1355.2,472.4c5.41-1.4,10.72-1.29,17.06-.11l-20.89,75.62c-5.6,2.43-11.56,1.51-18,.56l-16.17-55.47-14.98,55.46c-6.44,1.2-12.06,1.3-18.53-.01l-21.1-76.25c6.15-1.03,11.2-.69,17.69-.23l13.2,58.65,15.98-58.32c5.43-1.26,10.2-.85,16.12-.32l15.9,57.68,13.72-57.25Z"/>
    <path class="c" d="M1532.55,548.47c-5.09,1.39-10.66,1.12-16.45.3-1.13-17.94,1.41-35.35-1.21-52.99-1.28-8.57-10.04-11.63-17.59-11.32-6.94.28-15.44,6.28-15.55,15.01l-.63,49.43c-5.07.84-9.85.56-16.3.3l-.27-105.56c5.9-1.18,11.11-1.03,16.5-.07l.63,38.76c6.3-7.74,13.43-11.28,22.78-11.79,14.8-.81,27.63,9.54,27.73,24.56l.36,53.38Z"/>
    <path class="c" d="M1228.44,472.31l-29.31,84.62c-5.36,15.48-18.41,23.35-35.53,20.02-.71-3.84-.86-8.44.17-12.61,5.64,0,10.85.16,14.03-3.71,2.91-3.54,6.04-9.04,4.08-14.48l-26.59-73.96c6.33-1.22,11.08-.62,17.22-.4l19.69,60.45,19.16-59.69c5.58-1.51,10.96-1.35,17.08-.25Z"/>
    <path class="c" d="M1450.89,536.6c4.3,1.22,1.87,9.54,1.28,13.1-5.65.46-10.48.61-15.88-.13-9.47-1.29-15.84-8.57-15.89-18.1l-.24-46.45-10.82-.88c-.35-3.61-1.8-8.49.67-11.55,2.15-2.23,6.79-.06,9.67-1.48l.8-18.02c5.49-.7,10.54-1.03,16.09-.25l.82,18.23c4.17,1.61,9.77-.88,13.56,1.13,2.67,1.47,2.58,10.16-.09,11.73-3.77,2.23-9.51-.14-13.79,1.04l-.16,41.57c-.01,3.3,1.67,5.77,2.89,7.3,2.53,3.18,5.92,1.28,11.07,2.75Z"/>
    <rect class="c" x="1382.15" y="471.52" width="17.11" height="77.65"/>
    <g>
      <path class="c" d="M1705.32,518.59c-5.76,17.14-18.42,43.9-40.07,33.96-22.91-10.51-32.47,12.42-46.41-3.47-18.36-20.92-31.77-58.8-14.03-83.12,9.14-12.53,24.65-16.96,38.57-10.19,5.81,2.82,11.25,1.92,17.04-.4,14.71-5.9,32.33-3.98,41.31,10.07-9.71,7.39-15.03,16.83-13.94,28.08,1.01,10.36,6.71,19.45,17.53,25.06Z"/>
      <path class="c" d="M1676.96,423.54c-.06,13.38-13.66,29.25-25.95,25.06-2.54-11.97,10.76-26.7,22.78-29.02,3.7-.71,3.51-.3,3.17,3.96Z"/>
    </g>
    <ellipse class="c" cx="1390.68" cy="450.81" rx="9.8" ry="9.76"/>
    <path class="b" d="M1807.67,469.47c.31,13.6-7.69,23.64-20.93,24.65-8.9.68-17.65.23-26.6.12l.33-48.67c9.15-.33,18.15-.83,27.03.12,12.48,1.33,19.88,10.89,20.17,23.78Z"/>
    <g>
      <path class="c" d="M1791.13,510.48l-30.84.71-.16,41.86c-6.48.75-12.53.76-19.4,0l.13-123.41,46.09-.27c12.98-.08,24.09,4.71,31.6,13.68,8.05,9.61,10.79,22.51,8.33,35.06-3.55,18.05-16.31,31.91-35.75,32.36ZM1807.67,469.47c-.29-12.89-7.7-22.45-20.17-23.78-8.88-.95-17.88-.45-27.03-.12l-.33,48.67c8.95.12,17.7.56,26.6-.12,13.25-1.01,21.24-11.05,20.93-24.65Z"/>
      <path class="c" d="M1858.28,554.25c-12.66-1.37-21.62-9.63-24.3-20.54-2.71-11.03,1.48-23.72,13.1-28.89,12.88-5.73,27.14-5.62,41.81-5.85,2.64-4.48,1.05-10.79-1.18-15.22-2.68-5.32-8.89-6.87-15.23-7.11-8.66-.33-15.94,3.54-18.84,11.99-5.86.76-11.24.45-17.25-.45,1.34-9.77,6.97-18.27,16.37-22.79,13.95-6.7,30.8-6.68,43.99,1.92,9.38,6.12,12.28,17.84,12.18,28.67l-.55,56.62c-5.49,1.25-11.41.98-17.11.3-1.1-4.2,1.12-7.76-1.41-12.55-6.89,10.9-18.43,15.31-31.59,13.89ZM1860.95,539.1c8.35,2.97,16.96.05,22.2-4.55,6.25-5.48,7.68-13.76,7.05-22.71-12.03.85-38.56-1.66-38.7,14.01-.05,5.22,2.65,10.83,9.45,13.25Z"/>
      <path class="c" d="M1965.51,564.57c-6.35,17.85-22.94,26.55-40.51,21.54.11-5.12-.43-9.2.37-13.54,4.76-1.04,10.13.73,14.73-2.95,4.45-3.56,9.33-12.03,7.63-18.1-4.29-15.28-10.41-28.98-15.6-43.77l-15.71-44.7c6.98-1.38,13.24-1.19,20.19-.16l22.46,71.1,22.75-70.81c6.3-1.59,12.71-1.41,19.8-.02l-36.11,101.41Z"/>
      <path class="b" d="M1860.95,539.1c-6.8-2.42-9.5-8.02-9.45-13.25.14-15.66,26.67-13.16,38.7-14.01.63,8.95-.8,17.23-7.05,22.71-5.24,4.59-13.85,7.52-22.2,4.55Z"/>
    </g>
    <g>
      <path class="c" d="M1046.24,512.55l-29.21.84-.27,35.19c-6.03.74-11.23.89-17.04.06l.1-104.88,42.72.02c19.77,0,32.97,15.04,32.68,34.39-.26,17.33-10.35,33.84-28.97,34.37ZM1058.08,477.46c-.57-12.07-8.93-20.01-20.17-19.92l-20.67.16-.23,41.31,23.8-.27c10.99-.13,17.83-9.59,17.27-21.27Z"/>
      <path class="c" d="M1085.63,541.39c-5.51-6.38-5.69-14.54-3.75-21.62,4.88-17.85,32.4-15.52,47-17.26,3.47-1.72.63-10.88-1.38-13.94-2.86-4.36-7.95-5.26-13.45-5.34-8.18-.12-12.35,4.02-15.7,10.7-3.53,2.04-10.56.66-14.39.07.77-9.34,6.7-16.64,15.29-20.32,10.6-4.54,23.21-4.31,33.66.24,9.26,4.03,13.65,12.43,13.65,22.12v52.11c-5.15,1.46-10.31,1.39-15.71.35-.88-3.21.99-5.93-1.53-9.2-9.72,14.31-31.92,15.73-43.7,2.09ZM1129.1,515.17c-12.56-1.95-32.02-2.32-31.54,12.06.2,6.02,4.62,10.04,11.38,10.68,7.18.68,13.62-1.58,17.49-6.39,2.78-3.46,6.72-14.37,2.67-16.35Z"/>
      <path class="b" d="M1058.08,477.46c.56,11.68-6.28,21.15-17.27,21.27l-23.8.27.23-41.31,20.67-.16c11.24-.08,19.6,7.86,20.17,19.92Z"/>
      <path class="b" d="M1129.1,515.17c4.05,1.98.11,12.89-2.67,16.35-3.87,4.82-10.32,7.07-17.49,6.39-6.76-.64-11.18-4.66-11.38-10.68-.47-14.38,18.99-14.02,31.54-12.06Z"/>
    </g>
  </g>
</svg>