<?xml version="1.0" encoding="UTF-8"?>
<svg id="a" data-name="Layer 1" xmlns="http://www.w3.org/2000/svg" viewBox="499 327 1978 345">
  <defs>
    <style>
      .b {
        fill: #f9f9fa;
      }

      .c {
        fill: #f6ae10;
      }

      .d {
        fill: #3e9e56;
      }

      .e {
        fill: #3e3e43;
      }

      .f {
        fill: #37373c;
      }

      .g {
        fill: #f3f4f4;
      }

      .h {
        fill: #313237;
      }

      .i {
        fill: #de4a38;
      }

      .j {
        fill: #0a0a0a;
      }

      .k {
        fill: #497fe5;
      }

      .l {
        fill: #3d3c42;
      }

      .m {
        fill: #fdfdfd;
      }
    </style>
  </defs>
  <path class="m" d="M523.68,328.59h1952.64c14.18,0,23.66,15.61,22.14,29.74-.43,4-.6,7.33,1.53,9.58v3.15c-.58-.19-1.57.56-1.57,1.7v75.24c0,1.14.99,1.88,1.57,1.7v143.11c-.77-.19-1.39.55-1.4,1.69l-.7,54.65c-.14,11.18-11.17,18.02-20,22.29H522.1c-8.87-5.13-17.28-4.57-22.1-19.28l.06-301.16c0-7.49,4.84-12.08,8.78-16.52,4.63-5.22,8.9-5.87,14.84-5.87ZM1591.16,460.58c-11.56,19.34-10.32,43.6-.11,64.29,9.18,18.61,26.63,32.14,44.77,36.71,24.64,6.21,47.01,1.12,64.09-14.42,21.47-19.53,26.11-36.9,22.29-68.23l-67.22.04c-.63,9.37-.81,18.47.04,27.58l38.28,1c-2.72,6.45-6.45,16.62-13.9,21.02-11.35,6.7-25.1,8.98-39.15,4.06-9.34-3.27-20.75-12.57-25.9-24.98-3.14-7.57-2.11-20.45-.36-29.5,1.42-7.34,10.73-15.61,16.29-20.05,15.89-12.67,36.65-10.87,52.22,1.39l19.7-19.78c-16.49-15.49-38.97-21.85-62.76-16.79-19.19,4.08-38.54,17.46-48.26,37.66ZM1769.12,529.69c0,2.19,3.05,5.61,1.6,8.06-2.59,4.34-1.83,9.76-1.53,15.56,3.77,1.01,7.09-.07,9.51-.22,1.61-.1,5.42,1.36,6.47-.24,3.7-17.92-1.42-31.5,1-48.22l22.3.2c11.11.1,20.74-2.16,27.35-9.21,3.69-3.94,6.98-6.61,9.32-12.68l3.13-8.09c1.01-2.62.84-6.7.34-9.44.38-.94-.09-2.13-.24-3.15-1.64-11.13-9.42-23.11-20.83-25.71-1.73-2.49-5.79-4.01-9.59-4.05l-48.93-.51.09,97.71ZM1392.96,457.12c0-5.5-4.48-9.97-10-9.97s-10,4.46-10,9.97,4.48,9.97,10,9.97,10-4.46,10-9.97ZM1052.07,497.74c8.45-5.14,12.93-11.05,13.75-17.87.99-8.19-.75-15.61-6.67-21.05s-13.98-8.52-22.38-8.53l-41.83-.03-.27,99.89,48.33-.45c8.56-.08,16.38-4.56,21.47-10.84,5.86-7.23,7.31-15.79,4.5-24.77-2.15-6.9-7.58-12.52-16.9-16.35ZM1522.6,549.68l-.56-51.01c-.15-13.66-10.96-23.22-24.35-23.35-9.59-.09-16.99,3.38-23.62,10.79l-.53-36.12c-5.18-.54-9.77-.39-16.09-.23v100.15c6.13.52,10.91.45,15.98-.32,2.81-16.97-8.62-62.3,18.67-60.18,8.67.67,13.74,7.53,13.71,16.92l-.15,43.34c6.07.7,11.07.74,16.94,0ZM1445.5,537.19c-3.14-1-10.27,1.63-13.48-2.44-4.53-5.74-2.02-33.8-2.36-43.98l15.68-.6c.84-4.48.83-8.66.03-12.93l-15.66-.77-.97-19.15c-5.32-.19-10.51-.33-15.59.35-1.4,6.34.98,12.45-1.2,18.41-1.88,2.05-6.96.64-9.55,1.27-.85,4.17-.75,8.2-.2,12.59l10.39.87.43,42.08c.14,13.2,11.99,20.22,24.8,18.39,2.72-.39,6.38.32,7.69-1.64,1.2-1.8.75-12.2-.01-12.44ZM1857.9,476.4c-1.3,1.52-5.47,3.13-4.69,6.41.84,1.93,5.77,2.58,7.31,4.19,1.07,1.11,3.9,3.72,5.93,2.05,2.28-1.87,5.64-3.97,6.98-6.06,9.08-3.88,19.41-4.02,28.04.91.46.78,1.51,1.54,2.19,2.2l3.51,7.9.79,6.4c-1.29,1.03-3.1,1.33-5.17.77-11.1-3.02-22.53-3.53-32.61.39-3.28,1.27-7.27,2.72-9.43,5.38-1.05,1.29-3.52,2.9-4.84,4.2-7.34,7.21-8.47,17.62-4.52,27.4,3.7,9.17,12.16,14.57,21.8,16.65,5.79,1.26,10.22,2.38,16.06,0s12.6-3.58,15.98-9.77c1.35.18,2.51.94,3.26,2.07.84,1.26-.45,3.9.09,5.9,4.57.94,10.45.71,15.37.24.88-.78-.08-2.68-.18-3.14v-38.07c0-8.18.75-15.54-1.49-23.45-3.88-13.68-16.15-22.61-31.62-23.34-12.19-.57-25.12,1.81-32.75,10.77ZM1930.42,477.86c.25,4.73,3.48,7.84,5.02,11.87,5.61,14.69,11.26,29.57,18.71,43.42.42.78,1.16,2.15,1.5,2.92l3.55,12.43-16.98,39.9c5.13.96,10.11.97,15.68.18l20.85-47.57c.34-.26,1.34-.52,1.55-1.24.24-.84-1.01-1.69-1.58-2.15-.03-.51.03-1.01.15-1.5,1.2-.21,2.79-.91,3.5-2.62l16.66-39.68c1.78-4.23,4.94-8.45,4.97-13.24,2.73-3.49,4.39-7.72,5.36-12.27-5.31-.19-11.07-1.45-16.4.23-2.35.74-1.82,4.91-2.45,6.48l-1.32,3.3c-6.3,15.73-12.82,31.54-21.15,48.53l-20.24-45.78c-1.5-3.4-1.41-9.82-5.3-12.23-4.26-2.64-11.51-.39-16.04-.72-1.31,4.66,3.83,7.08,3.96,9.72ZM1146.72,477.29c-6.54-.37-11.09-.35-16.3.11l-.58,44.14c-.11,8.71-6.16,14.77-14.18,15.83-7.17.96-16.72-2.32-16.9-11.31l-.97-48.68c-5.9-.22-11.2-.72-16.77.29l.2,49.02c.05,12.35,8.56,22.36,19.3,24.9,11.2,2.65,22.3-1.06,28.83-11.29,2.28,3.5.79,6.06,1.42,9.32,5.23.72,10.25.81,15.92,0v-72.35ZM1226.34,477.6c-6.06-.75-11.85-.68-17.77-.05l-17.87,53.25-17.85-53.25c-6.13-.74-11.8-.8-18.17.08l24.56,64.78c2.28,6,2.53,10.84-1.07,15.95-3.24,4.61-8.62,6.23-15.73,4.61-1.02,4.01-.12,7.69-.48,12.82,15.24,4.72,29.76-2.45,35.31-17.8l29.06-80.39ZM1348.83,477.66l-13.08,52.69-14.94-53.16c-6.01.01-10.98-.31-16.58.27l-14.43,53.11-13.04-52.91c-5.58-.81-11.32-1.02-17.42.1l21.44,72.3,17.52-.16,14.29-50.77,14.88,50.53c6.27.59,11.82.88,17.74-.08l20.58-71.72c-5.67-1.13-11.21-1.1-16.96-.18ZM1391.81,477.1h-16.94s.01,73.1.01,73.1h16.94s-.01-73.1-.01-73.1Z"/>
  <g>
    <g>
      <path class="j" d="M1346.81,472.48c5.74-.91,11.29-.95,16.96.18l-20.58,71.72c-5.92.96-11.47.68-17.74.08l-14.88-50.53-14.29,50.77-17.52.16-21.44-72.3c6.11-1.12,11.84-.91,17.42-.1l13.04,52.91,14.43-53.11c5.6-.58,10.57-.26,16.58-.27l14.94,53.16,13.08-52.69Z"/>
      <path class="j" d="M1520.58,544.5c-5.88.74-10.88.71-16.94,0l.15-43.34c.03-9.4-5.04-16.25-13.71-16.92-27.28-2.11-15.85,43.21-18.67,60.18-5.07.76-9.85.84-15.97.32v-100.15c6.3-.17,10.9-.32,16.08.23l.53,36.12c6.64-7.41,14.04-10.89,23.62-10.79,13.4.13,24.2,9.69,24.35,23.35l.56,51.01Z"/>
      <path class="j" d="M1224.32,472.42l-29.06,80.39c-5.55,15.36-20.07,22.52-35.31,17.8.36-5.13-.54-8.82.48-12.82,7.11,1.61,12.49,0,15.73-4.61,3.59-5.12,3.34-9.95,1.07-15.95l-24.56-64.78c6.37-.88,12.04-.82,18.17-.08l17.85,53.25,17.87-53.25c5.91-.63,11.71-.7,17.77.05Z"/>
      <path class="j" d="M1144.7,472.11v72.35c-5.68.8-10.7.72-15.93,0-.63-3.26.86-5.82-1.42-9.32-6.54,10.22-17.64,13.94-28.83,11.29-10.74-2.54-19.25-12.56-19.3-24.9l-.2-49.02c5.57-1.01,10.87-.51,16.77-.29l.97,48.68c.18,8.99,9.73,12.26,16.9,11.31,8.02-1.07,14.07-7.12,14.18-15.83l.58-44.14c5.2-.46,9.76-.48,16.3-.11Z"/>
      <path class="j" d="M1443.48,532.01c.77.24,1.22,10.64.01,12.44-1.31,1.96-4.97,1.25-7.69,1.64-12.82,1.83-24.67-5.18-24.8-18.39l-.43-42.08-10.39-.87c-.55-4.39-.65-8.42.2-12.59,2.59-.63,7.67.78,9.55-1.27,2.18-5.95-.2-12.06,1.2-18.41,5.08-.68,10.27-.54,15.59-.35l.97,19.15,15.66.77c.8,4.26.81,8.45-.03,12.93l-15.68.6c.34,10.17-2.17,38.24,2.36,43.98,3.21,4.07,10.35,1.44,13.48,2.44Z"/>
      <rect class="j" x="1372.85" y="471.93" width="16.94" height="73.1"/>
      <ellipse class="j" cx="1380.94" cy="451.94" rx="10" ry="9.97"/>
      <g>
        <path class="j" d="M1050.05,492.57c9.32,3.83,14.75,9.45,16.9,16.35,2.81,8.99,1.36,17.54-4.5,24.77-5.09,6.28-12.91,10.76-21.47,10.84l-48.33.45.27-99.89,41.83.03c8.4,0,16.35,2.99,22.38,8.53,5.93,5.44,7.66,12.86,6.67,21.05-.82,6.82-5.3,12.74-13.75,17.87ZM1032.43,486.9c9.57,0,14.68-6.97,14.47-14.91-.45-16.9-25.3-12.47-36.82-12.07l.26,27,22.1-.02ZM1035.42,530.75c10.07-.73,15.7-7.89,15.3-16.26-.88-18.78-27.07-13.74-40.57-14.09l.14,30.61c8.91-.19,16.49.36,25.14-.26Z"/>
        <path class="g" d="M1035.42,530.75c-8.64.62-16.23.07-25.14.26l-.14-30.61c13.5.35,39.69-4.69,40.57,14.09.39,8.37-5.23,15.53-15.3,16.26Z"/>
        <path class="g" d="M1032.43,486.9l-22.1.02-.26-27c11.52-.4,36.37-4.83,36.82,12.07.21,7.94-4.9,14.9-14.47,14.91Z"/>
      </g>
    </g>
    <g>
      <g>
        <path class="k" d="M1697.88,541.98c-6.26-6.83-15-11.16-20.51-18.6,7.45-4.4,11.19-14.57,13.9-21.02l-38.28-1c-.85-9.11-.67-18.2-.04-27.58l67.22-.04c3.82,31.33-.82,48.7-22.29,68.23Z"/>
        <path class="i" d="M1611.96,472.97l-22.82-17.57c9.72-20.2,29.07-33.58,48.26-37.66,23.8-5.06,46.28,1.3,62.76,16.79l-19.7,19.78c-15.57-12.26-36.33-14.06-52.22-1.39-5.56,4.43-14.86,12.71-16.29,20.05Z"/>
        <path class="d" d="M1612.32,502.47c5.15,12.4,16.56,21.71,25.9,24.98,14.05,4.92,27.8,2.64,39.15-4.06,5.52,7.44,14.25,11.77,20.51,18.6-17.08,15.54-39.45,20.63-64.09,14.42-18.14-4.57-35.59-18.11-44.77-36.71,8.14-5.29,14.69-12.79,23.28-17.22Z"/>
        <path class="c" d="M1611.96,472.97c-1.75,9.04-2.79,21.93.36,29.5-8.59,4.43-15.15,11.93-23.28,17.22-10.21-20.69-11.44-44.94.11-64.29l22.82,17.57Z"/>
      </g>
      <g>
        <path class="e" d="M1825.53,431.37c11.41,2.61,19.19,14.58,20.83,25.71-2.93-.16-2.62,3.64.24,3.15.49,2.73.67,6.81-.34,9.44-2.41-.66-3.56.69-3.48,2.42.1,2.27.12,3.95.35,5.68-2.34,6.06-5.62,8.73-9.32,12.68-7.99.77-13.67,7.83-25.87,5.5l-5-8.49c3.7-.08,9.61.79,9.8-3.64,3.83,2.11,6.09-2.85,9.86-2.91,4.62-.07,9.2-6.61,7.57-10.94-.14-.41.31-1.07.36-1.53,3.02,1.04,2.83-2.53,3.12-4.32.4-2.49-.62-3.76-1.79-5.46-5.05-7.34-7.94-15.65-17.36-15.65.02-.67.29-1.73-.07-2.36-.42-.74-1.62-.95-2.98-.95l-23.92-.02c-1.43,0-2.41.36-2.95,1.04-.49.62,0,1.6-.17,2.29-2.47,10.22.25,20.89-1.35,31.3-4.21.45-8.46,2.15-12.31-.12-.52-14.82-.98-29.51-.56-45.33,17.03,2.92,45.56.28,55.34,2.51Z"/>
        <path class="f" d="M1997.02,488.64l-16.66,39.68c-.71,1.7-2.3,2.41-3.5,2.62-2.54-2.97-6.45-3.67-10.37-5.41l-13.48-5.98c-2.43,3.21,1.59,6.14-.86,8.42-7.45-13.85-13.1-28.73-18.71-43.42,3.41,1.88,4.46,5.67,6.58,9.81,2.68-.25,5.98-1.04,8.33-3.24,1.92-1.8-.18-5.07-1.32-6.71-1.15-1.65-4.71-.7-6.71-2.23-2.82-2.15,1.26-5.68,2.42-7.74.94.65,1.99,1.09,3.07,1.47l20.24,45.78c8.34-16.99,14.86-32.8,21.15-48.53,2.97-.42-4.94,14.4-4.58,17.75,3.33.38,6.6,3.44,9.63,1.99,2.16-1.03,2.62-4.37,4.79-4.25Z"/>
        <path class="f" d="M1920.25,483.79c-3.25.46-.53,14.46-2.24,18.7-.83-.27-2.03.36-2.81-.02-3.94-1.48-5.08-6.97-9.26-7.24l-.79-6.4c3.45.28,1.16-3.06.75-4.46-.67-2.32-2.14-3.51-4.26-3.44-.68-.66-1.72-1.42-2.19-2.2-5.65-9.54-2.12,1.2-8.65-11.25l-10.49,4.86c-4.17,1.93-6.88,2.31-8.9,5.48-1.34,2.09-4.7,4.19-6.98,6.06-2.03,1.66-4.87-.94-5.93-2.05-.46-2.26-3.58-2.7-4.05-4.14-.79-2.45,1.15-4.62,1.43-6.46,7.63-8.97,20.56-11.34,32.75-10.77,15.47.72,27.74,9.66,31.62,23.34Z"/>
        <path class="e" d="M1915.2,502.48c.78.37,1.99-.25,2.81.02l.65,4.91v37.83c-2.4-.06-8.23,1.66-9.14-1.65-1.1-4.04-1.25-7.47-5.3-7.87-.1-2.79-.81-5.62-2.67-7.76,1.37-4.33,5.59-10.25,3.91-15.86-11.05-8.54-28.8-6.93-40.29,1.97-3.46-.45-6.97-.88-10.87-2.25-.71-2.35-.45-4.14-.4-5.85,1.32-1.3,3.79-2.9,4.84-4.2,3.52,1.48,6.55-3.02,9.46-4.13,10.08-1.18,20,2.5,30.47,4.11,5.33.82,11.3-1.78,16.54.72Z"/>
        <path class="f" d="M1865.16,514.07c-.73,4.54-1.87,10.91.69,15.14,2.5,4.15,7.16,6.55,13.34,7.9-.1,3.78,2.49,3.4,5.09,3.17,3.36-.3,4.25-1.95,5.96-4.77,3.27-2.26,7.88-3.72,11.31-7.55,1.86,2.14,2.57,4.97,2.67,7.76-.56,1.45-1.02,2.95-1.02,4.52-3.38,6.19-10.16,7.4-15.98,9.77-4.14-2.98-11.94-3-16.06,0-9.63-2.09-18.09-7.48-21.8-16.65-3.95-9.78-2.82-20.19,4.52-27.4-.04,1.72-.31,3.5.4,5.85,3.9,1.37,7.41,1.8,10.87,2.25Z"/>
        <path class="e" d="M1974.98,535.44c.58-.07,1.17.38,1.76.39l-20.85,47.57c-5.57.78-10.55.78-15.68-.18l16.98-39.9-3.55-12.43c1.97.84,4.39-.44,6.05.84-2.11,5.43-.61,10.5,2.93,14.3,2.93-3.49.72-7.6,3.48-10.18,2.52-2.36,6.29-.1,8.89-.41ZM1959.83,563.69c-3.16,1.92-6.28-.33-10.32,1.56,2.78,3.74,7.09,2.19,9.94,3.39,1.22-.73,1.91-4.16.38-4.94Z"/>
        <path class="h" d="M1825.53,431.37c-9.78-2.24-38.31.41-55.34-2.51-.43,15.82.04,30.51.56,45.33.05,1.47.06,3.06-.1,4.52-.87,7.59-.16,15.24-.12,22.85,0,.98.89,31.63-3.41,22.96l-.09-97.71,48.93.51c3.8.04,7.86,1.56,9.59,4.05Z"/>
        <path class="e" d="M2001.99,475.41c-.03,4.78-3.2,9.01-4.97,13.24-2.17-.12-2.63,3.22-4.79,4.25-3.03,1.45-6.3-1.61-9.63-1.99-.36-3.36,7.55-18.17,4.58-17.75l1.32-3.3c1.91-1.52,3.57-3.66,5.38-4.03,2.4-.49,6.93.26,7.3,2.93.3,2.14.83,4.95.82,6.66Z"/>
        <path class="h" d="M1833.8,490.43c-6.61,7.05-16.24,9.31-27.35,9.21l-22.3-.2c-2.42,16.72,2.7,30.29-1,48.22-1.05,1.6-4.86.15-6.47.24.05-.55.07-1.11.05-1.67,7.46,1.06,4.23-9.48,4.6-16.82.3-5.98-.47-16.44-1.18-21.88-.34-2.6,1.21-9.03,3.66-9.98,8.02-3.12,16.42.19,24.12-1.62,12.2,2.33,17.88-4.73,25.87-5.5Z"/>
        <path class="l" d="M1976.85,530.94c-.12.49-.17.99-.15,1.5-1.55-.26-1.36,2.02-1.73,3.01-2.6.32-6.36-1.95-8.89.41-2.76,2.58-.56,6.69-3.48,10.18-3.54-3.8-5.04-8.88-2.93-14.3-1.66-1.28-4.07,0-6.05-.84-.33-.77-1.08-2.14-1.5-2.92,2.46-2.28-1.57-5.21.86-8.42l13.48,5.98c3.92,1.74,7.84,2.43,10.37,5.41Z"/>
        <path class="l" d="M1780.15,507.54c.72,5.44,1.49,15.9,1.18,21.88l-9.5-1.98c-1.82,1.57-1.62,3.49-1.55,5.12h-1.58c1.46-2.45-1.59-5.87-1.6-8.06,4.3,8.67,3.42-21.97,3.41-22.96,5.74.36,4.17,5.42,9.63,5.99Z"/>
        <path class="l" d="M1942.71,474.44c-1.15,2.06-5.23,5.59-2.42,7.74,2.01,1.53,5.56.58,6.71,2.23,1.14,1.64,3.24,4.92,1.32,6.71-2.35,2.2-5.64,2.99-8.33,3.24-2.11-4.14-3.17-7.93-6.58-9.81-1.54-4.03-4.77-7.14-5.02-11.87,1.7-2.41,4.63-2.9,6.97-3.17,4.24-.5,6.96.83,7.33,4.94Z"/>
        <path class="h" d="M1905.94,495.23c4.18.28,5.32,5.76,9.26,7.24-5.24-2.51-11.21.1-16.54-.72-10.47-1.61-20.38-5.29-30.47-4.11l-.03-1.25c10.08-3.91,21.51-3.41,32.61-.39,2.07.56,3.88.25,5.17-.77Z"/>
        <path class="h" d="M1945.78,475.91c-1.07-.38-2.13-.82-3.07-1.47-.38-4.11-3.09-5.44-7.33-4.94-2.34.28-5.27.76-6.97,3.17-.14-2.64-5.27-5.06-3.96-9.72,4.53.33,11.78-1.92,16.04.72,3.89,2.41,3.79,8.82,5.3,12.23Z"/>
        <path class="h" d="M2001.99,475.41c.01-1.71-.52-4.52-.82-6.66-.37-2.67-4.9-3.43-7.3-2.93-1.81.37-3.47,2.51-5.38,4.03.63-1.57.1-5.74,2.45-6.48,5.33-1.69,11.1-.43,16.4-.23-.96,4.56-2.63,8.78-5.36,12.27Z"/>
        <path class="h" d="M1899.45,478.73c-8.64-4.93-18.96-4.8-28.04-.91,2.03-3.17,4.74-3.55,8.9-5.48l10.49-4.86c6.52,12.45,3,1.71,8.65,11.25Z"/>
        <polygon class="f" points="1921.74 507.24 1921.74 545.31 1918.66 545.24 1918.66 507.4 1921.74 507.24"/>
        <path class="h" d="M1918.66,545.24l3.08.07c.11.46,1.07,2.36.18,3.14-4.91.48-10.79.7-15.37-.24-.54-2,.75-4.64-.09-5.9-.75-1.13-1.91-1.89-3.26-2.07,0-1.57.45-3.07,1.02-4.52,4.05.4,4.2,3.83,5.3,7.87.9,3.31,6.73,1.59,9.14,1.65Z"/>
        <path class="h" d="M1921.74,507.24l-3.08.17-.65-4.91c1.71-4.24-1.01-18.25,2.24-18.7,2.24,7.91,1.49,15.27,1.49,23.45Z"/>
        <path class="f" d="M1770.28,532.57c-.61,3.4-1.28,6.89-.85,11.28,2.03,2.61,4.89,2.47,7.3,2.39.03.56,0,1.11-.05,1.67-2.42.14-5.74,1.23-9.51.22-.3-5.8-1.06-11.21,1.53-15.56h1.58Z"/>
        <path class="e" d="M1887.23,550.02c-5.84,2.39-10.27,1.26-16.06,0,4.12-3.01,11.92-2.99,16.06,0Z"/>
        <path class="f" d="M1868.16,496.39l.03,1.25c-2.91,1.11-5.94,5.61-9.46,4.13,2.16-2.66,6.15-4.11,9.43-5.38Z"/>
        <path class="h" d="M1905.15,488.83l-3.51-7.9c2.12-.07,3.58,1.12,4.26,3.44.41,1.4,2.7,4.74-.75,4.46Z"/>
        <path class="h" d="M1858.5,481.83c-1.54-1.61-6.47-2.25-7.31-4.19-.78-3.28,3.4-4.89,4.69-6.41-.28,1.83-2.22,4.01-1.43,6.46.47,1.44,3.59,1.89,4.05,4.14Z"/>
        <path class="h" d="M1846.25,469.66l-3.13,8.09c-.23-1.73-.25-3.41-.35-5.68-.08-1.72,1.07-3.08,3.48-2.42Z"/>
        <path class="f" d="M1976.73,535.83c-.58,0-1.18-.46-1.76-.39.37-.99.18-3.26,1.73-3.01.57.46,1.83,1.31,1.58,2.15-.21.73-1.21.99-1.55,1.24Z"/>
        <path class="h" d="M1846.59,460.23c-2.86.49-3.17-3.31-.24-3.15.15,1.02.62,2.2.24,3.15Z"/>
        <path class="b" d="M1814.48,443.01c9.42,0,12.31,8.3,17.36,15.65.23,3.32-.99,6.49-1.33,9.78-.05.46-.51,1.12-.36,1.53-1.11,4.49-4.63,7.51-7.57,10.94-3.77.06-6.03,5.02-9.86,2.91l-26.85.13c-2.21.01-2.95-1.93-2.82-3.26.79-2.05-.31-4.34,0-6.37,1.59-10.41-1.12-21.07,1.35-31.3h30.08Z"/>
        <path class="f" d="M1779.49,480.68c.31,7.68,14.85,6.93,23.43,6.76l5,8.49c-7.7,1.81-16.11-1.5-24.12,1.62-2.46.96-4,7.38-3.66,9.98-5.46-.57-3.89-5.62-9.63-5.99-.04-7.61-.75-15.26.12-22.85,2.91.92,5.75,2,8.85,1.99Z"/>
        <path class="h" d="M1783.05,480.67c-.13,1.33.62,3.27,2.82,3.26l26.85-.13c-.19,4.43-6.1,3.56-9.8,3.64-8.58.18-23.12.93-23.43-6.76h3.56Z"/>
        <path class="h" d="M1814.48,443.01h-30.08c.17-.7-.32-1.68.17-2.29.54-.68,1.52-1.04,2.95-1.04l23.92.02c1.36,0,2.56.21,2.98.95.36.63.08,1.69.07,2.36Z"/>
        <path class="l" d="M1783.05,474.3c-.31,2.03.79,4.32,0,6.37h-3.56c-3.1.02-5.94-1.05-8.85-1.97.17-1.46.15-3.05.1-4.52,3.84,2.27,8.1.57,12.31.12Z"/>
        <path class="h" d="M1822.58,480.9c2.94-3.43,6.46-6.45,7.57-10.94,1.63,4.32-2.95,10.87-7.57,10.94Z"/>
        <path class="h" d="M1830.51,468.43c.34-3.29,1.56-6.46,1.33-9.78,1.17,1.7,2.2,2.97,1.79,5.46-.29,1.79-.1,5.36-3.12,4.32Z"/>
        <path class="b" d="M1901.55,527.96c-3.43,3.83-8.03,5.29-11.31,7.55-3.52,1.39-7.27,2.22-11.05,1.61-6.19-1.35-10.84-3.76-13.34-7.9-2.55-4.23-1.42-10.6-.69-15.14,11.49-8.9,29.24-10.51,40.29-1.97,1.68,5.61-2.53,11.53-3.91,15.86Z"/>
        <path class="h" d="M1890.24,535.52c-1.7,2.82-2.59,4.47-5.96,4.77-2.6.23-5.19.61-5.09-3.17,3.78.62,7.53-.21,11.05-1.61Z"/>
        <path class="l" d="M1959.83,563.69c1.53.78.85,4.21-.38,4.94-2.86-1.2-7.16.35-9.94-3.39,4.04-1.89,7.16.36,10.32-1.56Z"/>
        <path class="e" d="M1781.33,529.42c-.37,7.33,2.86,17.87-4.6,16.82-2.41.08-5.27.22-7.3-2.39-.43-4.4.25-7.88.85-11.28-.06-1.63-.27-3.55,1.55-5.12l9.5,1.98Z"/>
      </g>
    </g>
  </g>
</svg>