<?xml version="1.0" encoding="UTF-8"?>
<svg id="a" data-name="Layer 1" xmlns="http://www.w3.org/2000/svg" viewBox="780 430 1440 140">
  <defs>
    <style>
      .b {
        fill: #0c0909;
      }

      .c {
        fill: #f9b4c7;
      }
    </style>
  </defs>
  <path class="c" d="M2499.16,646.52c-17.14,20.66-28.67,22.69-57.44,22.68l-1907.98-.07c-16.34,0-26.7-10.92-31.67-25.21-3.01-29.08-1.31-57.63-1.5-87.43l-.57-91.75c-.17-28.05,1.13-54.87.09-82.91-.39-10.6.53-21.25,4.59-30.81,9.15-21.54,38.9-20.21,60.91-20.21l1698.18.05,201.93.88c22.51.1,34.27,20.06,34.27,39.21l.02,79.76-.11,114.51c-.03,27.66.55,53.44-.72,81.3ZM825.38,448.88h-24.03s.01,102.98.01,102.98h24.03s-.01-102.98-.01-102.98ZM890.35,551.56l-31.07-45.83c15-15.83,23.73-34.74,25.11-56.48-8.46-.54-15.84-.56-24.45-.05-.9,22.2-12.54,40.11-31.94,52.01l34.23,50.5,28.11-.15ZM897.43,448.87l-.27,102.98,22.17.06.27-102.98-22.17-.06ZM1510.78,472.84c0-3.77-3.06-6.83-6.83-6.83s-6.83,3.06-6.83,6.83,3.06,6.83,6.83,6.83,6.83-3.06,6.83-6.83ZM1696.05,472.71c0-3.84-3.11-6.95-6.95-6.95s-6.95,3.11-6.95,6.95,3.11,6.95,6.95,6.95,6.95-3.11,6.95-6.95ZM1908.82,538.11l-.25-69.55c-.09-2.33-9.31-2.38-9.31,0l-.03,70.11c0,2.86,9.6,3.28,9.59-.55ZM1933.1,538.02l-.71-69.63c-.41-2.31-9.08-2.03-9.21.34l-.27,70.42c3.51,1.86,7.54,2.7,10.19-1.13ZM1609.87,520.51c-3.17-.63-6.98-.28-9.77.53-.01,6.53,3.44,12.43,9.29,16.15,10.22,6.52,24.32,5.87,33.82-1.66,5.81-4.61,7.78-11.33,6.83-18.51-.7-5.27-4.65-9.79-11.28-13.79,7.26-5.65,10.12-13.67,7.3-21.49-2.47-6.85-9.22-11.47-17.18-12.57-13.33-1.84-26.07,5-27.09,18.75,16.42,4.89,8.18-12.61,25.4-9.62,6.2,1.08,10.06,6.12,9.21,11.9-1.77,12.03-16.09,6.25-18.09,10.31-6.75,13.75,20.77,1.39,20.87,19.77.04,6.74-5.46,10.71-12.41,11.5-8.3.94-14.14-3.37-16.92-11.25ZM1345.72,513.5c13-1.04,20.13-10.49,19.65-22.26-.45-11.12-7.15-20.07-18.75-21.02-10.49-.86-20.72-.81-31.59-.21l-.07,69.75c3.35.64,9.01,1.53,10.13-.65l.59-24.85c6.44-1.28,12.81-.18,20.04-.76ZM1825.15,525.79c-.68-20.41-3.51-31.12,6.76-29.93,3.74.43,4.98-1.29,5.14-3.81.22-3.43-1.41-4.59-5.42-4.45-2.33.08-5.77.7-6.55-1.03-1.2-2.68,1.44-11.82-2.03-13.18-1.57-.61-4.8-.85-6.82-.08-3.23,1.22,1.33,11.87-3.14,14.26-1.33.71-3.3.47-5.54,1.13-2.45.73-1.54,4.54-.98,6.11s6.91.17,7.37,1.82c3.03,10.66-.13,22.22,1.47,32.99,1.25,8.38,8.43,12.04,16.43,11.79,3.45-.11,6.29-.66,6.42-3.63.55-12.96-12.69.67-13.11-11.98ZM2152.83,496.71c4.02-1.77,8.91.51,11.1-2.01,1.52-1.75.92-5.58-.37-6.27-2.89-1.57-9.35.33-10.44-1.84-1.74-3.51.75-12.1-2.01-13.25-1.76-.73-5.11-.67-6.82.03-3.36,1.39.57,11.86-3.15,14.03-1.31.76-3.24.5-5.43,1.12-2.63.74-2.21,6.15-1.21,6.41l7.3,1.9c4.3,1.12-4,33.54,6.05,40.92,6.22,4.57,18.26,5.1,18.26-.09,0-2.35,1.07-5.99-2.34-5.98s-6.4.6-8.61-.97c-4.9-3.51-2.35-25.76-2.33-33.98ZM1006.45,551.16l-.46-69.73c-7.17-4.12-17.05,1.82-22.45.75-12.77-2.54-25.35-6.82-38.35,2.02-10.13,6.89-17.45,19.14-16.71,33.6.63,12.33,6.55,23.02,15.77,29.17,9.4,6.28,21.71,9.31,32.26,4.36,8.77-4.12,11.43,3.65,29.94-.16ZM1040.63,551.04c.9-13.67-1.15-24.93.85-36.58,1.63-9.5,11.62-11.71,19.86-13.38.81-7.12.59-14.05.03-20.85-8.79-.87-15.15,3.25-20.87,9.31l-.6-8.88c-7.6-.3-13.67-.49-20.91.14l.2,70.81c7.53.1,14.76,1.09,21.44-.56ZM1093.66,511.29c.09-9.09,8.39-13.59,15.45-13.15s13.13,6.17,13.15,14.28l.07,39.23c7.36.35,14.21.4,21.46,0l-.26-46.36c-.08-13.78-9.25-24.11-22.82-26.09-9.97-1.46-19.3.4-26.84,6.31-.95-8-14.47-4.38-22.37-4.73l.19,70.9c7.95.25,14.84.74,21.58-.44l.4-39.95ZM1229.65,550.68l.25-69.61c-8.13-2.66-17.34,1.01-24.52.78-16.85-5.82-34.66-3.81-46.45,11.16-10.04,12.74-10.39,32.68.52,46.27,11.07,13.79,28.27,17.71,45.49,11.03,6.53-.58,17.18,4.5,24.71.38ZM1376,536.89c8.29,7.08,20.1,5.91,27.16-2.01,1.74,2.43,2.57,4.94,4.47,5.24,1.3.21,5.52.49,5.54-1.41l.43-33.39c.16-12.45-9.27-19.13-21.18-18.93-9.51.16-19.08,5.41-19.85,15.21,13.6,5.8,6.62-7.76,22.85-6.34,4.9.43,11.1,6.12,7.39,11.49-8.27,4.45-27.22-.59-31.27,13.63-1.52,5.33-.91,11.92,4.48,16.52ZM1508.4,538.34v-48.89c-.02-3.15-9.1-3.22-9.18.07-.37,16.81-.63,32.43.08,49.19.11,2.48,9.1,2.92,9.1-.37ZM1533.1,506.5c.22-7.44,6.79-10.86,12.04-10.75,16.75.35,8.6,25.95,11.46,43.23.38,2.3,8.6,2.42,8.83-.3.94-11.33.33-22.07.32-33.34,0-8.86-4.99-16.04-12.59-17.94-7.86-1.96-15.46-.1-20.49,7.05-1.33-3.62-.95-6.62-3.55-7.07-1.74-.3-6.78-.6-6.76,2.41.11,16.47-.69,33.49.38,49.44.74,2.47,9.34,1.91,9.42-.77l.93-31.98ZM1718.19,506.33c.31-7.85,8.02-11.29,13.95-10.42,14.57,2.15,6.7,25.95,9.53,43.15.41,2.49,9.14,2.03,9.28-.57.61-11.34.28-21.97,0-33.22-.22-8.82-5.28-16.23-12.59-17.91-8.21-1.88-16.25-.21-20.5,7.76-1.84-3.73-.86-6.93-3.42-7.49-1.73-.38-6.88-.74-6.87,2.14.1,16.51-.54,33.55.31,49.3.79,2.25,8.91,2.36,9.02-.35l1.29-32.41ZM1787.77,541.1c9.69-1.92,15.39-8.49,14.93-17.09-1.02-19.07-29.89-10.86-30.85-21.99-.45-5.24,5.94-6.96,9.64-6.91,4.12.06,7.81,1.62,10.53,6.17,1.41,2.37,9.35,2.17,8.92-.71-1.9-12.64-15.93-15.6-26.22-13.06-7.59,1.87-12.29,6.78-12.82,13.51-.56,7.1,3.4,13.55,10.85,15.45l15.26,3.9c3.36.86,4.74,4.2,4.17,7.01-.41,2.04-2.08,3.74-4.48,4.75-7.9,3.31-14.22-.72-17.88-7.19-1.23-2-8.49-.52-9.16,1.75,2.19,11.59,15.13,16.82,27.11,14.44ZM1848.87,536.84c8.38,7.23,19.85,5.96,27.48-1.76,1.59,2.62,2.39,5.18,4.19,5.44,1.92.27,5.97.23,5.99-1.98l.31-33.18c.11-11.82-8.5-18.48-19.81-18.79-9.64-.27-20.28,4.79-21.23,14.94,13.57,6.23,8.3-8.06,22.4-6.26,5.45.7,9.19,3.64,9.14,11.11-7.5,3.82-27.96.47-32.03,13.3-1.96,6.19-1.52,12.81,3.55,17.19ZM1998.58,495.84c15.36,1.2,6.02,31.2,9.44,43.26.54,2.26,8.67,2.06,9.07-.23-.63-15.71,6.64-47.6-12.04-51.67-7.86-1.71-14.89.31-19.99,8.29-4.67-5.37-8.94-8.67-14.83-8.75-5.81-.08-10.69,1.15-14.38,6.78-1.61-3.12-1.97-5.86-3.68-6.22-1.49-.31-6.26-1.03-6.35,1.08-.68,16.73-.41,34.73-.02,50.81,21.6,13.94-3.17-47.94,22.72-43.37,4.34.77,7.6,4.89,7.74,10.26l.87,32.71c.08,2.84,8.52,2.67,8.87-.12,1.95-15.16-5.06-44.23,12.59-42.85ZM2043.22,530.21c-3.26-2.27-6.89-7.62-5.87-13.38l36.68-.4c2.68-14.58-6.72-28.55-20.76-29.69-13.95-1.14-25.4,9.33-26.81,23.81-1.26,13,4.2,25.3,16.24,29.58,10.8,3.84,25.99.64,30.06-12.14.85-2.66-5.07-3.56-7.02-3.41-3.12.24-10.01,14.35-22.51,5.63ZM2118.87,539.84c2.02,1.25,7.03.78,8.54-.56-1.38-17.45,7.26-47.39-13.12-52.01-8.16-1.85-14.45.7-20.11,5.86-.95-3.1-2.21-5.7-3.99-5.87-1.55-.14-5.75-.54-5.78,2.12-.2,16.79-.54,32.6.2,49.42.11,2.45,8.67,2.49,8.77.29l1.49-32.86c.31-6.88,7.31-11.02,13.07-10.52,16.9,1.48,7.28,31.66,10.94,44.13ZM2200.2,540.55c8.82-2.25,13.59-9.02,13.18-16.44-1.03-18.61-27.48-11.32-30.28-20.8-1.76-5.97,5.51-8.26,9.52-8.18,4.39.08,7.72,1.67,10.56,6.18,1.4,2.21,9.25,1.91,8.75-.91-2.1-11.82-14.68-15.23-24.8-13.3-8.66,1.65-14.3,7.54-14.18,15.55.29,19.58,27.36,12.13,29.7,22.09,1.45,6.17-5.51,8.49-9.83,8.54-4.85.05-8.92-2.13-11.36-7.62-1.16-2.62-9.86-2.1-9.56.51,1.53,13.48,16.33,17.45,28.31,14.39ZM1468.07,488.77c-3.51-2.5-7.53-1.93-10.78-.16l-13.59,36.4-13.56-36.3c-2.97-1.54-8.38-2.67-10.55.31,5.38,15.16,11.15,30.54,17.08,44.85,2.17,5.24,1.63,9.18-1.39,13.27-2.79,3.77-7,4.53-12.87,3.31-.56,1.32-2.29,7.28-.34,8.34,8.78,4.81,19.26-.67,22.71-9.61l23.31-60.42ZM1693.9,538.1c.68-17.29.3-32.34.07-48.54-.04-2.79-8.87-2.96-9.15-.66l-.41,50.58c2.28,1.65,9.35,2.18,9.49-1.37ZM1266.46,539.27c0-7.45-6.04-13.48-13.48-13.48s-13.48,6.04-13.48,13.48,6.04,13.48,13.48,13.48,13.48-6.04,13.48-13.48Z"/>
  <path class="b" d="M1229.65,550.68c-7.53,4.13-18.18-.96-24.71-.38-17.22,6.68-34.42,2.76-45.49-11.03-10.91-13.59-10.56-33.53-.52-46.27,11.79-14.96,29.6-16.97,46.45-11.16,7.19.23,16.39-3.44,24.52-.78l-.25,69.61ZM1208.17,515.97c0-10-8.11-18.1-18.1-18.1s-18.1,8.11-18.1,18.1,8.11,18.1,18.1,18.1,18.1-8.11,18.1-18.1Z"/>
  <path class="b" d="M1006.45,551.16c-18.51,3.81-21.17-3.96-29.94.16-10.55,4.95-22.86,1.92-32.26-4.36-9.22-6.16-15.14-16.84-15.77-29.17-.74-14.46,6.59-26.71,16.71-33.6,12.99-8.84,25.58-4.56,38.35-2.02,5.4,1.07,15.28-4.87,22.45-.75l.46,69.73ZM985.14,515.88c0-10.05-8.15-18.19-18.19-18.19s-18.19,8.15-18.19,18.19,8.15,18.19,18.19,18.19,18.19-8.15,18.19-18.19Z"/>
  <path class="b" d="M1093.66,511.29l-.4,39.95c-6.74,1.18-13.63.69-21.58.44l-.19-70.9c7.9.34,21.43-3.28,22.37,4.73,7.55-5.91,16.87-7.76,26.84-6.31,13.56,1.98,22.74,12.31,22.82,26.09l.26,46.36c-7.25.41-14.09.36-21.46,0l-.07-39.23c-.01-8.11-6.17-13.85-13.15-14.28s-15.36,4.06-15.45,13.15Z"/>
  <path class="b" d="M890.35,551.56l-28.11.15-34.23-50.5c19.39-11.9,31.03-29.81,31.94-52.01,8.61-.51,15.99-.49,24.45.05-1.38,21.74-10.11,40.65-25.11,56.48l31.07,45.83Z"/>
  <rect class="b" x="801.36" y="448.89" width="24.03" height="102.98"/>
  <rect class="b" x="856.89" y="489.3" width="102.99" height="22.17" transform="translate(405.61 1407.46) rotate(-89.85)"/>
  <path class="b" d="M1998.58,495.84c-17.64-1.37-10.64,27.69-12.59,42.85-.36,2.79-8.8,2.96-8.87.12l-.87-32.71c-.14-5.37-3.39-9.49-7.74-10.26-25.89-4.57-1.12,57.3-22.72,43.37-.39-16.08-.66-34.08.02-50.81.09-2.11,4.86-1.39,6.35-1.08,1.72.36,2.07,3.1,3.68,6.22,3.69-5.63,8.57-6.86,14.38-6.78,5.89.08,10.16,3.39,14.83,8.75,5.1-7.98,12.13-10,19.99-8.29,18.67,4.07,11.4,35.95,12.04,51.67-.4,2.29-8.52,2.49-9.07.23-3.42-12.06,5.92-42.07-9.44-43.26Z"/>
  <path class="b" d="M1040.63,551.04c-6.67,1.65-13.9.66-21.44.56l-.2-70.81c7.25-.63,13.31-.44,20.91-.14l.6,8.88c5.72-6.06,12.08-10.18,20.87-9.31.57,6.79.78,13.73-.03,20.85-8.24,1.67-18.23,3.89-19.86,13.38-2,11.65.05,22.9-.85,36.58Z"/>
  <path class="b" d="M1609.87,520.51c2.78,7.88,8.61,12.19,16.92,11.25,6.95-.79,12.45-4.76,12.41-11.5-.1-18.38-27.63-6.02-20.87-19.77,2-4.06,16.31,1.72,18.09-10.31.85-5.78-3.01-10.82-9.21-11.9-17.23-2.99-8.98,14.51-25.4,9.62,1.02-13.74,13.77-20.59,27.09-18.75,7.95,1.1,14.71,5.72,17.18,12.57,2.82,7.83-.04,15.84-7.3,21.49,6.63,4,10.58,8.52,11.28,13.79.95,7.18-1.03,13.9-6.83,18.51-9.5,7.54-23.6,8.18-33.82,1.66-5.84-3.73-9.3-9.62-9.29-16.15,2.79-.81,6.6-1.16,9.77-.53Z"/>
  <path class="b" d="M1345.72,513.5c-7.23.58-13.6-.51-20.04.76l-.59,24.85c-1.12,2.19-6.78,1.3-10.13.65l.07-69.75c10.88-.61,21.1-.66,31.59.21,11.6.95,18.3,9.9,18.75,21.02.47,11.77-6.65,21.22-19.65,22.26ZM1347.96,503.51c5.66-1.7,6.73-7.53,6.81-11.45.08-4.25-1.2-9.83-6.32-11.42-7.47-2.32-15.53-.92-22.92-.74.23,9.35-.6,16.27.55,24.46,7.19-.25,14.57,1.35,21.87-.84Z"/>
  <path class="b" d="M2043.22,530.21c12.5,8.72,19.39-5.39,22.51-5.63,1.95-.15,7.87.75,7.02,3.41-4.07,12.78-19.26,15.98-30.06,12.14-12.04-4.28-17.5-16.59-16.24-29.58,1.41-14.49,12.87-24.95,26.81-23.81,14.05,1.14,23.45,15.11,20.76,29.69l-36.68.4c-1.02,5.76,2.61,11.1,5.87,13.38ZM2064.25,508.21c-1.32-9.49-7.89-13.97-15.74-12.64-5.58.94-11.45,6.46-10.95,13.05l26.68-.41Z"/>
  <path class="b" d="M1376,536.89c-5.39-4.6-6-11.19-4.48-16.52,4.05-14.21,23.01-9.18,31.27-13.63,3.71-5.36-2.49-11.06-7.39-11.49-16.23-1.43-9.25,12.13-22.85,6.34.77-9.8,10.35-15.05,19.85-15.21,11.91-.2,21.34,6.48,21.18,18.93l-.43,33.39c-.02,1.9-4.24,1.62-5.54,1.41-1.89-.3-2.73-2.81-4.47-5.24-7.06,7.91-18.86,9.09-27.16,2.01ZM1402.84,515.61c-10.46.75-21.99,1.22-21.23,10.04.32,3.71,2.71,6.24,7.31,6.73,4.82.51,9.37-.65,11.8-3.83,2.59-3.39,4.08-7.98,2.12-12.93Z"/>
  <path class="b" d="M1848.87,536.84c-5.07-4.37-5.52-11-3.55-17.19,4.07-12.83,24.53-9.48,32.03-13.3.05-7.47-3.69-10.41-9.14-11.11-14.1-1.8-8.83,12.5-22.4,6.26.95-10.14,11.59-15.2,21.23-14.94,11.31.31,19.92,6.97,19.81,18.79l-.31,33.18c-.02,2.21-4.06,2.25-5.99,1.98-1.8-.25-2.6-2.82-4.19-5.44-7.63,7.72-19.1,8.99-27.48,1.76ZM1876.08,515.45c-9.93.95-20.22,1.36-21.17,8.53-.38,2.85.48,5.98,3.49,7.51,4.93,2.52,10.75,1.5,14.38-1.94,3.63-3.43,5.46-9.12,3.31-14.11Z"/>
  <path class="b" d="M1468.07,488.77l-23.31,60.42c-3.45,8.94-13.93,14.42-22.71,9.61-1.94-1.07-.21-7.03.34-8.34,5.87,1.22,10.08.46,12.87-3.31,3.03-4.09,3.56-8.03,1.39-13.27-5.93-14.32-11.7-29.69-17.08-44.85,2.17-2.98,7.59-1.86,10.55-.31l13.56,36.3,13.59-36.4c3.24-1.77,7.27-2.34,10.78.16Z"/>
  <path class="b" d="M1787.77,541.1c-11.98,2.37-24.92-2.85-27.11-14.44.66-2.27,7.92-3.75,9.16-1.75,3.66,6.47,9.98,10.5,17.88,7.19,2.4-1.01,4.06-2.7,4.48-4.75.57-2.81-.81-6.15-4.17-7.01l-15.26-3.9c-7.45-1.9-11.4-8.35-10.85-15.45.53-6.73,5.23-11.64,12.82-13.51,10.29-2.54,24.32.42,26.22,13.06.43,2.89-7.5,3.08-8.92.71-2.72-4.55-6.41-6.11-10.53-6.17-3.7-.05-10.09,1.67-9.64,6.91.97,11.14,29.83,2.93,30.85,21.99.46,8.6-5.23,15.18-14.93,17.09Z"/>
  <path class="b" d="M1533.1,506.5l-.93,31.98c-.08,2.68-8.68,3.24-9.42.77-1.08-15.95-.27-32.97-.38-49.44-.02-3,5.02-2.71,6.76-2.41,2.6.44,2.22,3.44,3.55,7.07,5.03-7.15,12.63-9.01,20.49-7.05,7.6,1.9,12.59,9.08,12.59,17.94,0,11.27.62,22.01-.32,33.34-.23,2.72-8.45,2.59-8.83.3-2.86-17.27,5.29-42.88-11.46-43.23-5.25-.11-11.82,3.31-12.04,10.75Z"/>
  <path class="b" d="M1718.19,506.33l-1.29,32.41c-.11,2.71-8.22,2.6-9.02.35-.85-15.76-.21-32.8-.31-49.3-.02-2.88,5.13-2.52,6.87-2.14,2.56.56,1.58,3.76,3.42,7.49,4.25-7.97,12.29-9.65,20.5-7.76,7.31,1.68,12.37,9.09,12.59,17.91.28,11.25.61,21.89,0,33.22-.14,2.6-8.87,3.06-9.28.57-2.83-17.2,5.04-41-9.53-43.15-5.93-.88-13.64,2.57-13.95,10.42Z"/>
  <path class="b" d="M2200.2,540.55c-11.98,3.06-26.78-.91-28.31-14.39-.3-2.62,8.4-3.13,9.56-.51,2.44,5.49,6.51,7.67,11.36,7.62,4.32-.05,11.28-2.37,9.83-8.54-2.34-9.95-29.4-2.51-29.7-22.09-.12-8.01,5.52-13.9,14.18-15.55,10.12-1.93,22.7,1.48,24.8,13.3.5,2.82-7.35,3.13-8.75.91-2.85-4.5-6.17-6.09-10.56-6.18-4.01-.08-11.28,2.21-9.52,8.18,2.8,9.48,29.26,2.2,30.28,20.8.41,7.42-4.36,14.19-13.18,16.44Z"/>
  <path class="b" d="M2118.87,539.84c-3.67-12.46,5.96-42.65-10.94-44.13-5.76-.5-12.76,3.64-13.07,10.52l-1.49,32.86c-.1,2.19-8.66,2.16-8.77-.29-.74-16.82-.4-32.63-.2-49.42.03-2.65,4.23-2.26,5.78-2.12,1.78.16,3.04,2.77,3.99,5.87,5.65-5.16,11.94-7.71,20.11-5.86,20.39,4.62,11.75,34.56,13.12,52.01-1.52,1.34-6.52,1.81-8.54.56Z"/>
  <path class="b" d="M1825.15,525.79c.42,12.65,13.66-.99,13.11,11.98-.13,2.97-2.97,3.52-6.42,3.63-7.99.25-15.18-3.41-16.43-11.79-1.6-10.77,1.56-22.33-1.47-32.99-.47-1.64-6.84-.32-7.37-1.82s-1.46-5.38.98-6.11c2.24-.66,4.21-.42,5.54-1.13,4.47-2.4-.08-13.04,3.14-14.26,2.02-.77,5.26-.53,6.82.08,3.47,1.36.84,10.5,2.03,13.18.78,1.74,4.21,1.11,6.55,1.03,4.01-.14,5.64,1.02,5.42,4.45-.16,2.52-1.4,4.25-5.14,3.81-10.27-1.19-7.44,9.52-6.76,29.93Z"/>
  <path class="b" d="M2152.83,496.71c-.02,8.22-2.57,30.47,2.33,33.98,2.2,1.57,5.13.98,8.61.97s2.34,3.63,2.34,5.98c0,5.19-12.04,4.66-18.26.09-10.05-7.38-1.75-39.8-6.05-40.92l-7.3-1.9c-.99-.26-1.42-5.67,1.21-6.41,2.19-.62,4.12-.35,5.43-1.12,3.72-2.16-.21-12.64,3.15-14.03,1.71-.71,5.06-.76,6.82-.03,2.76,1.14.27,9.74,2.01,13.25,1.08,2.17,7.55.28,10.44,1.84,1.29.7,1.88,4.52.37,6.27-2.18,2.52-7.08.24-11.1,2.01Z"/>
  <path class="b" d="M1908.82,538.11c.01,3.84-9.59,3.41-9.59.55l.03-70.11c0-2.38,9.22-2.32,9.31,0l.25,69.55Z"/>
  <path class="b" d="M1933.1,538.02c-2.64,3.83-6.68,2.99-10.19,1.13l.27-70.42c.13-2.37,8.8-2.65,9.21-.34l.71,69.63Z"/>
  <circle class="b" cx="1252.98" cy="539.27" r="13.48"/>
  <path class="b" d="M1508.4,538.34c0,3.29-8.99,2.84-9.1.37-.71-16.76-.45-32.38-.08-49.19.07-3.28,9.16-3.22,9.16-.07v48.89Z"/>
  <path class="b" d="M1693.9,538.1c-.14,3.56-7.21,3.02-9.49,1.37l.41-50.58c.28-2.3,9.11-2.13,9.15.66.23,16.2.62,31.25-.07,48.54Z"/>
  <circle class="b" cx="1689.1" cy="472.71" r="6.95"/>
  <circle class="b" cx="1503.94" cy="472.84" r="6.83"/>
  <circle class="c" cx="1190.07" cy="515.97" r="18.1"/>
  <circle class="c" cx="966.95" cy="515.88" r="18.19"/>
  <path class="c" d="M1347.96,503.51c-7.31,2.19-14.68.6-21.87.84-1.15-8.19-.32-15.11-.55-24.46,7.39-.17,15.45-1.58,22.92.74,5.11,1.59,6.4,7.17,6.32,11.42-.08,3.92-1.14,9.76-6.81,11.45Z"/>
  <path class="c" d="M2064.25,508.21l-26.68.41c-.5-6.59,5.37-12.11,10.95-13.05,7.85-1.33,14.42,3.15,15.74,12.64Z"/>
  <path class="c" d="M1402.84,515.61c1.96,4.95.47,9.54-2.12,12.93-2.43,3.18-6.98,4.34-11.8,3.83-4.6-.49-7-3.01-7.31-6.73-.75-8.81,10.77-9.28,21.23-10.04Z"/>
  <path class="c" d="M1876.08,515.45c2.15,4.98.32,10.68-3.31,14.11-3.63,3.43-9.44,4.45-14.38,1.94-3.01-1.54-3.87-4.66-3.49-7.51.96-7.17,11.24-7.58,21.17-8.53Z"/>
</svg>