<svg xmlns="http://www.w3.org/2000/svg" viewBox="0 0 750 471">
  <rect width="750" height="471" rx="40" fill="#fff"/>
  <path d="M278.198 334.228l33.36-195.763h53.358L331.566 334.228h-53.368zM524.307 142.687c-10.57-3.966-27.135-8.222-47.822-8.222-52.726 0-89.863 26.551-90.181 64.604-.318 28.129 26.514 43.822 46.754 53.185 20.771 9.598 27.752 15.716 27.652 24.283-.133 13.123-16.586 19.115-31.924 19.115-21.355 0-32.701-2.967-50.225-10.274l-6.878-3.112-7.487 43.822c12.463 5.467 35.508 10.199 59.438 10.445 56.09 0 92.502-26.248 92.916-66.885.199-22.27-14.016-39.215-44.801-53.188-18.65-9.056-30.072-15.099-29.951-24.269 0-8.137 9.668-16.838 30.56-16.838 17.286-.271 29.585 3.474 39.476 7.431l4.746 2.248 7.196-42.689l.531 2.344zM661.615 138.464h-41.23c-12.773 0-22.332 3.486-27.941 16.234l-79.245 179.402h56.031s9.159-24.121 11.231-29.418c6.123 0 60.555.084 68.336.084 1.596 6.854 6.492 29.334 6.492 29.334h49.512l-43.186-195.636zm-65.417 126.408c4.414-11.279 21.26-54.724 21.26-54.724-.316.521 4.381-11.334 7.074-18.684l3.606 16.878s10.217 46.729 12.353 56.527h-44.293v.003zM232.903 138.464L180.664 271.96l-5.565-27.129c-9.726-31.274-40.025-65.157-73.898-82.12l47.767 171.204 56.455-.066 84.004-195.386h-56.524" fill="#1434CB"/>
  <path d="M131.92 138.464H45.879l-.682 4.073C112.58 157.177 166.061 199.979 186.759 244.83L165.634 155.015c-3.64-13.854-14.182-16.215-27.452-16.551h-6.262" fill="#F7A600"/>
</svg>
